<svg xmlns="http://www.w3.org/2000/svg" viewBox="0 0 144 144" enable-background="new 0 0 144 144"><style type="text/css">.st0{fill:#FFFFFF;}</style><path class="st0" d="M55.6 71.8h-17.3v15.9h16.4c2.5-.1 7.1-.8 7.1-7.7.1-8.2-6.2-8.2-6.2-8.2zm4.2-16.2c0-6.2-4.2-6.2-4.2-6.2h-17.3v13.3h16.2c2.9 0 5.3-.9 5.3-7.1zm-59.8-55.6v144h144v-144h-144zm86.9 42.3h24.5v7.3h-24.5v-7.3zm-12.4 38.4c0 18.1-18.9 17.6-18.9 17.6h-30.9v-59.5h30.9c9.4 0 16.8 5.2 16.8 15.8 0 10.6-9.1 11.3-9.1 11.3 12 .1 11.2 14.8 11.2 14.8zm45.9-.9h-30.8c0 11.1 10.5 10.4 10.5 10.4 9.9 0 9.5-6.4 9.5-6.4h10.5c0 17-20.3 15.8-20.3 15.8-24.4 0-22.8-22.7-22.8-22.7s-.1-22.9 22.7-22.9c24.1 0 20.7 25.8 20.7 25.8zm-20.4-17.1c-9.2 0-10.5 9.2-10.5 9.2h19.5c0-.1.1-9.2-9-9.2z"/></svg>