<?xml version="1.0" encoding="utf-8"?>
<!-- Generator: Adobe Illustrator 19.1.0, SVG Export Plug-In . SVG Version: 6.00 Build 0)  -->
<svg version="1.1" id="Layer_1" xmlns="http://www.w3.org/2000/svg" xmlns:xlink="http://www.w3.org/1999/xlink" x="0px" y="0px"
	 viewBox="0 0 300 300" style="enable-background:new 0 0 300 300;" xml:space="preserve">
<style type="text/css">
	.st0{fill:#231F20;}
	.st1{fill:#A6519E;}
	.st2{fill:none;stroke:#231F20;stroke-width:1.69;stroke-linecap:round;stroke-miterlimit:10;}
	.st3{fill:none;stroke:#231F20;stroke-width:2;stroke-linejoin:round;stroke-miterlimit:10;}
	.st4{fill:#FFFFFF;}
	.st5{fill:#FFFFFF;stroke:#231F20;stroke-width:1.4461;stroke-miterlimit:10;}
</style>
<path class="st0" d="M36.5,212.8c15.3-7.3,42.4-13.4,42.4-13.4l-19.2,26L36.5,212.8z"/>
<path class="st0" d="M226.8,199.4c30,8,36.8,10.1,36.8,10.1l-26.1,20.6L226.8,199.4z"/>
<path class="st1" d="M144.7,1.7c41.4,1.7,58.9,16.6,67.5,44.6c4.1,13.6,1.5,30.1-0.5,42.7c-2.6,16.6-4.8,29.1-6.5,29.3
	c-11,0.8,4.7-36.3-5.5-71.8C167.5,32.6,126.9,36,94.9,49.9c-5.9,46.5,18.5,72.1,7.6,70.1c-7.8-1.4-11.8-3.1-19.4-13.5
	c-6.8-9.3-12.7-18.9-11-40.6C74.1,39,103.3,3.4,144.7,1.7z"/>
<g>
	<path class="st0" d="M123.6,81.7c0,0-0.2,0-0.5,0.1c-0.3,0-0.9,0.1-1.5,0.1c-0.7,0-1.5-0.1-2.4-0.4c-0.9-0.3-1.9-0.8-2.8-1.5
		c-0.5-0.4-0.9-0.7-1.4-1.2c-0.2-0.2-0.4-0.5-0.6-0.7c-0.2-0.2-0.4-0.5-0.6-0.8c-0.8-1.1-1.4-2.4-1.8-3.8c-0.4-1.4-0.5-3-0.4-4.5
		c0.2-1.6,0.6-3.1,1.3-4.5c0.7-1.4,1.7-2.7,2.9-3.8c1.1-1,2.5-1.9,3.9-2.4c1.4-0.5,2.8-0.8,4.1-0.9c1.3,0,2.6,0.1,3.7,0.4
		c1.1,0.3,2.1,0.7,2.9,1.2c0.4,0.2,0.8,0.5,1.1,0.7c0.3,0.2,0.6,0.5,0.9,0.7c0.5,0.4,0.8,0.8,1.1,1.1c0.2,0.3,0.3,0.4,0.3,0.4
		s-0.1-0.1-0.4-0.3c-0.3-0.2-0.7-0.5-1.2-0.9c-0.3-0.2-0.6-0.4-0.9-0.6c-0.3-0.2-0.7-0.4-1.1-0.6c-0.8-0.4-1.8-0.6-2.8-0.9
		c-1.1-0.2-2.2-0.2-3.4-0.1c-1.2,0.1-2.5,0.5-3.7,1c-1.2,0.5-2.3,1.3-3.3,2.2c-1,0.9-1.8,2.1-2.5,3.3c-1.3,2.5-1.6,5.4-1,8
		c0.3,1.3,0.8,2.5,1.4,3.5c0.2,0.3,0.3,0.5,0.5,0.7c0.2,0.2,0.4,0.5,0.6,0.7c0.3,0.4,0.7,0.9,1.1,1.2c1.6,1.5,3.3,2.2,4.6,2.3
		c0.6,0.1,1.1,0.1,1.5,0.1C123.5,81.7,123.6,81.7,123.6,81.7z"/>
</g>
<g>
	<path class="st0" d="M178.3,81.7c0,0,0.2,0,0.5,0.1c0.2,0,0.4,0,0.7,0.1c0.3,0,0.6,0,0.9,0c0.3,0,0.7,0,1.1,0
		c0.4,0,0.8-0.1,1.3-0.2c0.9-0.2,1.9-0.5,2.9-0.9c1-0.4,2-1.1,3-1.9c1-0.8,1.8-1.8,2.5-3c0.7-1.1,1.2-2.5,1.5-3.8
		c0.2-0.8,0.2-1.4,0.2-2.1c0-0.7,0-1.4-0.2-2.1c-0.4-2.8-2-5.4-4-7.1c-1-0.9-2.2-1.5-3.3-2c-0.6-0.2-1.1-0.4-1.8-0.5
		c-0.6-0.1-1.1-0.2-1.7-0.3c-2.2-0.2-4,0.5-5.1,1.2c-0.6,0.3-1,0.7-1.3,0.9c-0.3,0.2-0.4,0.4-0.4,0.4s0.1-0.1,0.4-0.4
		c0.2-0.3,0.6-0.7,1.1-1.1c0.5-0.4,1.2-0.9,2.1-1.3c0.9-0.4,2-0.7,3.2-0.7c0.6,0,1.2,0,1.9,0.1c0.6,0.1,1.3,0.3,1.9,0.5
		c1.3,0.4,2.6,1.1,3.8,2c1.2,0.9,2.3,2.1,3.1,3.5c0.8,1.4,1.4,2.9,1.7,4.5c0.1,0.8,0.2,1.6,0.2,2.4c0,0.8-0.1,1.7-0.3,2.4
		c-0.3,1.6-1,3-1.8,4.3c-0.8,1.3-1.9,2.3-3,3.1c-1.1,0.8-2.3,1.4-3.4,1.8c-1.1,0.4-2.2,0.6-3.2,0.6c-0.5,0-0.9,0-1.3,0
		c-0.4,0-0.8,0-1.1-0.1c-0.7-0.1-1.2-0.2-1.5-0.3C178.5,81.7,178.3,81.7,178.3,81.7z"/>
</g>
<path class="st0" d="M171,69.8c4-4.6,9-5.2,12.7-1.5c3.7,3.7,2.6,10.3-5.4,13.4C178.3,81.7,170.1,80.1,171,69.8z"/>
<path class="st0" d="M124.4,65.9c-9.1,6.4-5.6,15-0.8,15.8c4.8,0.8,12.7-8.5,12.6-11.9C136.2,66.3,130.8,62.5,124.4,65.9z"/>
<path class="st2" d="M148,87.9c4.9-4.3,10.6-5.7,11.9-0.7"/>
<path class="st3" d="M218.7,140.8c-0.3-1.1-0.5-2.5-0.6-4.1c-0.6-8.9,2.3-22.9,11.5-23.5c6.3-0.4,1.9,23,1.9,23s20.3-20.8,30.4-15.5
	c10.1,5.4-15.7,19.9-15.7,19.9s15-8.8,22-5.6c7,3.2-4.4,13.2-16.2,15.9c12.6-0.4,18.8,0.1,19.9,4.2s-16,17.1-34.7,10.5"/>
<path class="st3" d="M87.3,143.6c0.9-8.9-0.9-20.4-9.1-22c-6.4-1.3-5.1,23.3-5.1,23.3s-17.9-24.2-29-20s13.4,22.6,13.4,22.6
	s-14.1-11.1-21.8-8.8s2.6,14.1,14.4,18.5c-12.8-2.2-19.3-2.5-21,1.6c-1.7,4,14,19.7,34,15.5c1.9-0.4,3.7-1.1,5.5-2.1"/>
<path class="st0" d="M128.6,94.2c-1.3-0.8-2.5-1.8-4-2.1c-4.8-1.1,1.3,15.4,3.9,17.5c3.5,2.8,7.1,4.8,13.2,5.7
	c6.2,0.9,13,1,19.2-0.2c9.4-1.8,12-4.9,13.3-14.9C172.9,101.3,132.9,99.1,128.6,94.2C128.6,94.2,128.6,94.2,128.6,94.2z"/>
<g>
	<path class="st4" d="M59.8,218.9C114.4,148,131,126.1,138.3,117c7.2-9.1,11.2-6.8,11.5,0.3c3.7-6.2,11-9.5,18.1-1.7
		c7.2,7.9,67.9,80.8,77.7,101S72.1,254.3,59.8,218.9z"/>
	<path class="st0" d="M59.8,218.8c7.4-9.8,14.7-19.6,22.1-29.3c7.4-9.7,14.8-19.5,22.3-29.2c7.4-9.7,14.8-19.4,22.4-29.1l11.2-14.5
		l1.5-1.8c0.6-0.6,1.1-1.2,1.7-1.7c1.1-1.1,2.4-2.1,4-2.6c0.8-0.2,1.8-0.3,2.6,0.1c0.8,0.4,1.4,1.1,1.8,1.9c0.7,1.5,0.9,3.1,1,4.6
		l-0.8-0.2c1-1.6,2.2-3,3.7-4.2c1.5-1.1,3.3-2,5.2-2.1c1.9-0.2,3.8,0.2,5.4,1.1c1.6,0.9,3.1,2.1,4.3,3.4c4.8,5.4,9.4,11,14,16.6
		l13.8,16.8c4.6,5.6,9.1,11.2,13.7,16.9c2.3,2.8,4.5,5.7,6.7,8.5c2.2,2.8,4.5,5.7,6.7,8.6c4.4,5.7,8.8,11.6,13,17.5
		c2,3,4.2,5.9,6.1,9l1.5,2.3c0.5,0.8,0.9,1.6,1.4,2.4l1.3,2.4c0.1,0.3,0.2,0.4,0.3,0.7c0.1,0.3,0.2,0.6,0.2,0.8
		c0.1,0.5,0,1.1-0.2,1.6c-0.3,1-0.9,1.8-1.6,2.5c-0.7,0.7-1.4,1.3-2.2,1.8c-1.6,1-3.2,1.9-4.9,2.6c-3.4,1.5-6.8,2.6-10.4,3.6
		c-7,2-14.2,3.4-21.3,4.7c-7.2,1.2-14.4,2.1-21.6,2.9c-14.4,1.5-29,2.4-43.5,2.4c-7.3,0-14.5-0.2-21.8-0.6
		c-7.2-0.4-14.5-1.1-21.7-2.2c-7.2-1.1-14.3-2.6-21.2-5.1c-3.4-1.3-6.7-2.8-9.8-4.8C63.7,225.1,60.9,222.4,59.8,218.8L59.8,218.8
		L59.8,218.8z M59.9,218.9c1.2,3.4,4,6,6.9,8c3,2,6.4,3.4,9.8,4.6c6.8,2.3,14,3.8,21.1,4.8c7.2,1,14.4,1.6,21.6,2
		c7.2,0.4,14.5,0.5,21.7,0.4c7.2-0.1,14.5-0.4,21.7-0.8c7.2-0.4,14.4-1,21.6-1.8c7.2-0.8,14.4-1.7,21.5-2.9
		c7.1-1.2,14.2-2.6,21.2-4.5c3.5-1,6.9-2.1,10.2-3.5c1.6-0.7,3.2-1.5,4.7-2.5c1.4-1,2.8-2.1,3.3-3.6c0.1-0.4,0.2-0.7,0.1-1.1
		c0-0.2-0.1-0.4-0.1-0.5c0-0.1-0.2-0.4-0.2-0.6l-1.3-2.4c-0.4-0.8-0.8-1.6-1.3-2.4l-1.4-2.3c-1.9-3.1-4-6-6-9
		c-4.2-5.9-8.4-11.8-12.8-17.6c-4.3-5.8-8.8-11.5-13.3-17.2c-4.5-5.7-9-11.4-13.5-17c-4.5-5.6-9.1-11.3-13.8-16.8
		c-4.7-5.5-9.3-11.1-14.1-16.5c-1.2-1.3-2.6-2.4-4.2-3.2c-1.6-0.8-3.3-1.2-5.1-1c-1.7,0.2-3.4,1-4.7,2c-1.4,1.1-2.5,2.5-3.4,4
		l-0.7,1.3l-0.1-1.5c-0.1-1.5-0.3-3-1-4.2c-0.3-0.6-0.8-1.1-1.3-1.4c-0.6-0.3-1.2-0.2-1.9,0c-1.3,0.5-2.5,1.4-3.6,2.4
		c-0.6,0.5-1,1.1-1.5,1.6l-1.4,1.8l-11.2,14.6c-7.4,9.7-14.9,19.4-22.4,29c-7.5,9.7-15,19.3-22.5,29C75,199.7,67.4,209.3,59.9,218.9
		z"/>
</g>
<path class="st0" d="M149.8,117.4c-4.7,13.3-22.7,81.3-8.6,114.9c1.7,4.3,14.9,4.3,17.6,0S158.8,131.9,149.8,117.4z"/>
<path class="st5" d="M263.6,209.5c-42.9,18.3-94.9,39.5-224.1,2.5c-1.7-0.5-3.4,0.6-3.7,2.3c-1.7,10.5,10.8,40.4,10.8,40.4
	s40.1,32.5,98,33.6s99.4-35.8,99.4-35.8c8.3-15.2,17.6-37.2,19.7-40.5C265.7,208.8,263.6,209.5,263.6,209.5z"/>
<path class="st2" d="M193.7,69.7c6.2-1.2,5.1-5.2,5.1-5.2"/>
<path class="st2" d="M193.3,72.8c5.2,3.1,6.6-1.4,6.6-1.4"/>
<path class="st2" d="M112.4,73c-3.4,2-8.2-1.4-8.2-1.4"/>
<path class="st2" d="M112.4,68.9c-6.8,0.8-6.8-7.4-6.8-7.4"/>
<rect x="315.7" y="12.3" class="st1" width="192.8" height="192.8"/>
</svg>
