<?xml version="1.0" encoding="utf-8"?>
<!-- Generator: Adobe Illustrator 19.1.0, SVG Export Plug-In . SVG Version: 6.00 Build 0)  -->
<svg version="1.1" id="Layer_1" xmlns="http://www.w3.org/2000/svg" xmlns:xlink="http://www.w3.org/1999/xlink" x="0px" y="0px"
	 viewBox="0 0 144 252" style="enable-background:new 0 0 144 252;" xml:space="preserve">
<path d="M115.4,65.4c-2.8-2.2-5.6-2.2-8.3-2.2H96.5v20.5h8.7c4.1,0,6.7,0,8.9-1.1c2.9-1.7,4.8-5,4.8-8.9
	C119,70.8,118,67.5,115.4,65.4z M115.4,26.9c-2.8-2.2-5.6-2.2-8.3-2.2H96.5v20.5h8.7c4.1,0,6.7,0,8.9-1.1c2.9-1.7,4.8-5,4.8-8.9
	C119,32.3,118,29,115.4,26.9z M70.4,100.2V19.5H34c-6.5,0-11.8,5.3-11.8,11.9v74.1c0,6.5,5.3,11.9,11.9,11.9h75.8
	c6.5,0,11.9-5.3,11.9-11.9V100c-3.6,0.3-7.2,0.3-10.6,0.3L70.4,100.2L70.4,100.2z"/>
<g>
	<path d="M22.6,119.8h3.1v14.6h7.4v2.8H22.6V119.8z"/>
	<path d="M36.1,132.3c0.1,0.9,0.4,1.6,1,2.1c0.6,0.5,1.3,0.7,2.1,0.7c0.7,0,1.4-0.2,1.9-0.5c0.5-0.3,0.9-0.7,1.3-1.1l2.1,1.6
		c-0.7,0.9-1.5,1.5-2.3,1.8c-0.9,0.4-1.7,0.5-2.7,0.5c-0.9,0-1.7-0.1-2.5-0.4c-0.8-0.3-1.5-0.7-2-1.3c-0.6-0.5-1-1.2-1.4-2
		s-0.5-1.6-0.5-2.5s0.2-1.8,0.5-2.5s0.8-1.4,1.4-2c0.6-0.5,1.3-1,2-1.3s1.6-0.4,2.5-0.4c0.8,0,1.6,0.1,2.3,0.4
		c0.7,0.3,1.3,0.7,1.7,1.2c0.5,0.5,0.9,1.2,1.1,2c0.3,0.8,0.4,1.7,0.4,2.7v0.8H36.1z M42.1,130.1c0-0.9-0.3-1.6-0.8-2.1
		c-0.5-0.5-1.3-0.8-2.2-0.8c-0.9,0-1.6,0.3-2.1,0.8c-0.5,0.5-0.8,1.2-0.9,2H42.1z"/>
	<path d="M46.5,125.4h2.8v1.9h0c0.3-0.6,0.7-1.1,1.3-1.5c0.6-0.4,1.4-0.7,2.3-0.7c0.8,0,1.5,0.1,2,0.4c0.5,0.3,1,0.6,1.3,1
		c0.3,0.4,0.6,0.9,0.7,1.5c0.1,0.6,0.2,1.1,0.2,1.7v7.5h-3v-6c0-0.3,0-0.7,0-1.1c0-0.4-0.1-0.8-0.3-1.1c-0.1-0.4-0.4-0.6-0.7-0.9
		c-0.3-0.2-0.7-0.4-1.2-0.4c-0.5,0-0.9,0.1-1.2,0.2c-0.3,0.2-0.6,0.4-0.8,0.7s-0.4,0.6-0.5,1s-0.1,0.7-0.1,1.1v6.5h-3V125.4z"/>
	<path d="M62,119.8h6.8c0.7,0,1.3,0.1,1.9,0.2c0.6,0.2,1.2,0.4,1.7,0.8c0.5,0.4,0.9,0.8,1.2,1.4c0.3,0.6,0.5,1.2,0.5,2
		c0,1-0.3,1.8-0.8,2.4c-0.6,0.6-1.3,1.1-2.2,1.4v0c0.5,0.1,1,0.2,1.5,0.5c0.5,0.2,0.9,0.5,1.2,0.9c0.3,0.4,0.6,0.8,0.8,1.3
		c0.2,0.5,0.3,1,0.3,1.6c0,1-0.2,1.7-0.6,2.4c-0.4,0.6-0.9,1.1-1.5,1.5c-0.6,0.4-1.3,0.7-2.1,0.8s-1.6,0.2-2.4,0.2H62V119.8z
		 M65.1,126.9h2.8c1,0,1.8-0.2,2.3-0.6s0.8-0.9,0.8-1.6c0-0.8-0.3-1.3-0.8-1.7c-0.5-0.4-1.4-0.6-2.6-0.6h-2.6V126.9z M65.1,134.6
		h2.9c0.4,0,0.8,0,1.3-0.1c0.5,0,0.9-0.2,1.2-0.3c0.4-0.2,0.7-0.4,0.9-0.8c0.2-0.3,0.4-0.8,0.4-1.4c0-0.9-0.3-1.6-0.9-1.9
		c-0.6-0.4-1.5-0.5-2.8-0.5h-3V134.6z"/>
	<path d="M87.1,137.2h-2.8v-1.9h0c-0.3,0.6-0.7,1.1-1.3,1.5c-0.6,0.4-1.4,0.7-2.3,0.7c-0.8,0-1.5-0.1-2-0.4c-0.6-0.3-1-0.6-1.3-1
		c-0.3-0.4-0.6-0.9-0.7-1.5c-0.1-0.6-0.2-1.1-0.2-1.7v-7.5h3v6c0,0.3,0,0.7,0,1.1c0,0.4,0.1,0.8,0.3,1.1c0.1,0.4,0.4,0.6,0.6,0.9
		s0.7,0.4,1.2,0.4c0.5,0,0.9-0.1,1.2-0.2c0.3-0.2,0.6-0.4,0.8-0.7s0.4-0.6,0.5-1c0.1-0.4,0.1-0.7,0.1-1.1v-6.5h3V137.2z"/>
	<path d="M89,125.4h2.8v1.9h0c0.3-0.6,0.7-1.1,1.3-1.5c0.6-0.4,1.4-0.7,2.3-0.7c0.8,0,1.5,0.1,2,0.4s1,0.6,1.3,1
		c0.3,0.4,0.6,0.9,0.7,1.5c0.1,0.6,0.2,1.1,0.2,1.7v7.5h-3v-6c0-0.3,0-0.7,0-1.1s-0.1-0.8-0.3-1.1c-0.1-0.4-0.4-0.6-0.7-0.9
		c-0.3-0.2-0.7-0.4-1.2-0.4c-0.5,0-0.9,0.1-1.2,0.2c-0.3,0.2-0.6,0.4-0.8,0.7s-0.4,0.6-0.5,1c-0.1,0.4-0.1,0.7-0.1,1.1v6.5h-3V125.4
		z"/>
	<path d="M109.9,128.9c-0.3-0.4-0.7-0.6-1.1-0.9c-0.4-0.2-0.8-0.3-1.2-0.3c-0.5,0-1,0.1-1.5,0.3s-0.8,0.5-1.1,0.8
		c-0.3,0.3-0.5,0.7-0.7,1.1c-0.2,0.4-0.2,0.9-0.2,1.3c0,0.5,0.1,0.9,0.2,1.3c0.2,0.4,0.4,0.8,0.7,1.1c0.3,0.3,0.7,0.6,1.1,0.8
		s0.9,0.3,1.5,0.3c0.5,0,0.9-0.1,1.3-0.3c0.4-0.2,0.7-0.5,1-0.8l2,2.1c-0.3,0.3-0.6,0.5-1,0.8c-0.4,0.2-0.8,0.4-1.2,0.5
		c-0.4,0.1-0.8,0.2-1.1,0.3s-0.7,0.1-0.9,0.1c-0.9,0-1.7-0.1-2.5-0.4c-0.8-0.3-1.5-0.7-2-1.3c-0.6-0.5-1-1.2-1.4-2
		c-0.3-0.8-0.5-1.6-0.5-2.5s0.2-1.8,0.5-2.5c0.3-0.8,0.8-1.4,1.4-2c0.6-0.5,1.3-1,2-1.3s1.6-0.4,2.5-0.4c0.8,0,1.5,0.1,2.3,0.4
		s1.4,0.7,2,1.4L109.9,128.9z"/>
	<path d="M114.7,132.3c0.1,0.9,0.4,1.6,1,2.1c0.6,0.5,1.3,0.7,2.1,0.7c0.7,0,1.4-0.2,1.9-0.5s0.9-0.7,1.3-1.1l2.1,1.6
		c-0.7,0.9-1.5,1.5-2.3,1.8c-0.9,0.4-1.7,0.5-2.7,0.5c-0.9,0-1.7-0.1-2.5-0.4c-0.8-0.3-1.5-0.7-2-1.3c-0.6-0.5-1-1.2-1.4-2
		c-0.3-0.8-0.5-1.6-0.5-2.5s0.2-1.8,0.5-2.5c0.3-0.8,0.8-1.4,1.4-2c0.6-0.5,1.3-1,2-1.3s1.6-0.4,2.5-0.4c0.8,0,1.6,0.1,2.3,0.4
		c0.7,0.3,1.3,0.7,1.7,1.2c0.5,0.5,0.9,1.2,1.1,2c0.3,0.8,0.4,1.7,0.4,2.7v0.8H114.7z M120.7,130.1c0-0.9-0.3-1.6-0.8-2.1
		s-1.3-0.8-2.2-0.8c-0.9,0-1.6,0.3-2.1,0.8c-0.5,0.5-0.8,1.2-0.9,2H120.7z"/>
</g>
<g>
	<path d="M23.1,221.6h0.6v8.1h-0.6V221.6z"/>
	<path d="M29.8,228.7c-0.3,0.4-0.6,0.7-0.9,0.8c-0.4,0.2-0.8,0.2-1.2,0.2c-0.4,0-0.7-0.1-1-0.2c-0.3-0.1-0.6-0.3-0.8-0.5
		c-0.2-0.2-0.4-0.5-0.5-0.8s-0.2-0.7-0.2-1.1c0-0.4,0.1-0.7,0.2-1c0.1-0.3,0.3-0.6,0.5-0.8c0.2-0.2,0.5-0.4,0.8-0.5
		c0.3-0.1,0.6-0.2,1-0.2c0.4,0,0.7,0.1,1,0.2c0.3,0.1,0.5,0.3,0.7,0.5s0.3,0.5,0.4,0.7s0.2,0.6,0.2,0.8v0.5h-4.2
		c0,0.1,0,0.3,0.1,0.5c0.1,0.2,0.2,0.4,0.3,0.6c0.1,0.2,0.3,0.4,0.6,0.5c0.2,0.1,0.5,0.2,0.9,0.2c0.3,0,0.6-0.1,1-0.2
		c0.3-0.2,0.5-0.4,0.7-0.6L29.8,228.7z M29.3,226.8c0-0.2,0-0.4-0.1-0.6c-0.1-0.2-0.2-0.4-0.4-0.5c-0.2-0.1-0.3-0.3-0.5-0.3
		c-0.2-0.1-0.4-0.1-0.7-0.1c-0.4,0-0.6,0.1-0.9,0.2c-0.2,0.1-0.4,0.3-0.6,0.5c-0.1,0.2-0.2,0.4-0.3,0.5c-0.1,0.2-0.1,0.3-0.1,0.4
		H29.3z"/>
	<path d="M31.2,226.1c0-0.1,0-0.2,0-0.3c0-0.1,0-0.3,0-0.4c0-0.1,0-0.3,0-0.4c0-0.1,0-0.2,0-0.3h0.6c0,0.2,0,0.4,0,0.5
		c0,0.2,0,0.3,0,0.3h0c0.1-0.3,0.3-0.5,0.6-0.7c0.3-0.2,0.7-0.3,1.1-0.3c0.4,0,0.7,0.1,0.9,0.2c0.2,0.1,0.4,0.3,0.6,0.5
		s0.2,0.4,0.3,0.7s0.1,0.5,0.1,0.8v3h-0.6v-2.9c0-0.2,0-0.4-0.1-0.6c0-0.2-0.1-0.4-0.2-0.5c-0.1-0.2-0.2-0.3-0.4-0.4
		s-0.4-0.1-0.6-0.1c-0.2,0-0.5,0-0.7,0.1c-0.2,0.1-0.4,0.2-0.5,0.4c-0.2,0.2-0.3,0.4-0.4,0.6c-0.1,0.3-0.1,0.6-0.1,0.9v2.5h-0.6
		V226.1z"/>
	<path d="M36.9,221.6h0.6v4h0c0.1-0.2,0.2-0.3,0.4-0.4s0.3-0.2,0.5-0.3c0.2-0.1,0.4-0.1,0.6-0.2c0.2,0,0.4-0.1,0.6-0.1
		c0.4,0,0.7,0.1,1,0.2c0.3,0.1,0.6,0.3,0.8,0.5c0.2,0.2,0.4,0.5,0.5,0.8s0.2,0.7,0.2,1s-0.1,0.7-0.2,1s-0.3,0.6-0.5,0.8
		c-0.2,0.2-0.5,0.4-0.8,0.5c-0.3,0.1-0.7,0.2-1,0.2c-0.2,0-0.4,0-0.6-0.1c-0.2,0-0.4-0.1-0.6-0.2c-0.2-0.1-0.3-0.2-0.5-0.3
		s-0.3-0.3-0.4-0.4h0v0.9h-0.6V221.6z M37.5,227.2c0,0.3,0.1,0.5,0.2,0.8s0.3,0.5,0.4,0.6s0.4,0.3,0.7,0.4c0.3,0.1,0.5,0.2,0.8,0.2
		c0.3,0,0.6-0.1,0.8-0.2c0.2-0.1,0.5-0.3,0.6-0.4s0.3-0.4,0.4-0.6s0.1-0.5,0.1-0.8s0-0.5-0.1-0.8s-0.2-0.5-0.4-0.6s-0.4-0.3-0.6-0.4
		c-0.2-0.1-0.5-0.2-0.8-0.2c-0.3,0-0.6,0.1-0.8,0.2c-0.3,0.1-0.5,0.3-0.7,0.4s-0.3,0.4-0.4,0.6S37.5,226.9,37.5,227.2z"/>
	<path d="M47.6,228.3c0,0.1,0,0.2,0,0.3s0,0.3,0,0.4c0,0.1,0,0.3,0,0.4s0,0.2,0,0.3H47c0-0.2,0-0.4,0-0.5c0-0.2,0-0.3,0-0.3h0
		c-0.1,0.3-0.3,0.5-0.6,0.7c-0.3,0.2-0.7,0.3-1.1,0.3c-0.4,0-0.7-0.1-1-0.2c-0.2-0.1-0.4-0.3-0.6-0.5s-0.2-0.4-0.3-0.7
		c-0.1-0.3-0.1-0.5-0.1-0.8v-3H44v2.9c0,0.2,0,0.4,0.1,0.6s0.1,0.4,0.2,0.5c0.1,0.1,0.2,0.3,0.4,0.4s0.4,0.1,0.6,0.1
		c0.2,0,0.5,0,0.7-0.1c0.2-0.1,0.4-0.2,0.5-0.4c0.2-0.2,0.3-0.4,0.4-0.6c0.1-0.3,0.1-0.6,0.1-0.9v-2.5h0.6V228.3z"/>
	<path d="M49.2,226.1c0-0.1,0-0.2,0-0.3c0-0.1,0-0.3,0-0.4c0-0.1,0-0.3,0-0.4c0-0.1,0-0.2,0-0.3h0.6c0,0.2,0,0.4,0,0.5
		c0,0.2,0,0.3,0,0.3h0c0.1-0.3,0.3-0.5,0.6-0.7c0.3-0.2,0.7-0.3,1.1-0.3c0.4,0,0.7,0.1,0.9,0.2c0.2,0.1,0.4,0.3,0.6,0.5
		s0.2,0.4,0.3,0.7s0.1,0.5,0.1,0.8v3h-0.6v-2.9c0-0.2,0-0.4-0.1-0.6c0-0.2-0.1-0.4-0.2-0.5c-0.1-0.2-0.2-0.3-0.4-0.4
		s-0.4-0.1-0.6-0.1c-0.2,0-0.5,0-0.7,0.1c-0.2,0.1-0.4,0.2-0.5,0.4c-0.2,0.2-0.3,0.4-0.4,0.6s-0.1,0.6-0.1,0.9v2.5h-0.6V226.1z"/>
	<path d="M59.2,229c-0.2,0.3-0.5,0.5-0.8,0.7c-0.3,0.1-0.6,0.2-1,0.2c-0.4,0-0.7-0.1-1.1-0.2s-0.6-0.3-0.8-0.5s-0.4-0.5-0.5-0.8
		s-0.2-0.7-0.2-1s0.1-0.7,0.2-1s0.3-0.6,0.5-0.8s0.5-0.4,0.8-0.5s0.7-0.2,1.1-0.2c0.4,0,0.7,0.1,1,0.2s0.6,0.4,0.8,0.6l-0.5,0.4
		c-0.2-0.2-0.4-0.4-0.6-0.5c-0.2-0.1-0.5-0.2-0.7-0.2c-0.3,0-0.6,0.1-0.8,0.2c-0.2,0.1-0.5,0.3-0.6,0.4s-0.3,0.4-0.4,0.6
		s-0.1,0.5-0.1,0.8s0,0.5,0.1,0.8s0.2,0.5,0.4,0.6s0.4,0.3,0.6,0.4c0.2,0.1,0.5,0.2,0.8,0.2c0.3,0,0.5-0.1,0.7-0.2s0.4-0.3,0.6-0.5
		L59.2,229z"/>
	<path d="M64.4,228.7c-0.3,0.4-0.6,0.7-0.9,0.8c-0.4,0.2-0.8,0.2-1.2,0.2c-0.4,0-0.7-0.1-1-0.2c-0.3-0.1-0.6-0.3-0.8-0.5
		c-0.2-0.2-0.4-0.5-0.5-0.8s-0.2-0.7-0.2-1.1c0-0.4,0.1-0.7,0.2-1c0.1-0.3,0.3-0.6,0.5-0.8c0.2-0.2,0.5-0.4,0.8-0.5
		c0.3-0.1,0.6-0.2,1-0.2c0.4,0,0.7,0.1,1,0.2c0.3,0.1,0.5,0.3,0.7,0.5s0.3,0.5,0.4,0.7s0.2,0.6,0.2,0.8v0.5h-4.2
		c0,0.1,0,0.3,0.1,0.5c0.1,0.2,0.2,0.4,0.3,0.6c0.1,0.2,0.3,0.4,0.6,0.5c0.2,0.1,0.5,0.2,0.9,0.2c0.3,0,0.6-0.1,1-0.2
		c0.3-0.2,0.5-0.4,0.7-0.6L64.4,228.7z M63.9,226.8c0-0.2,0-0.4-0.1-0.6c-0.1-0.2-0.2-0.4-0.4-0.5c-0.2-0.1-0.3-0.3-0.5-0.3
		c-0.2-0.1-0.4-0.1-0.7-0.1c-0.4,0-0.6,0.1-0.9,0.2c-0.2,0.1-0.4,0.3-0.6,0.5c-0.1,0.2-0.2,0.4-0.3,0.5c-0.1,0.2-0.1,0.3-0.1,0.4
		H63.9z"/>
	<path d="M70.6,226.9c0,0.1-0.1,0.2-0.1,0.3s0,0.2,0,0.2c0,0.1,0,0.1,0,0.2s0.1,0.1,0.2,0.1c0.2,0,0.4-0.1,0.6-0.2
		c0.2-0.2,0.4-0.4,0.6-0.6c0.2-0.2,0.3-0.5,0.4-0.8c0.1-0.3,0.2-0.6,0.2-0.9c0-0.4-0.1-0.8-0.3-1.1c-0.2-0.3-0.4-0.6-0.7-0.9
		s-0.6-0.4-1-0.6c-0.4-0.1-0.8-0.2-1.2-0.2c-0.5,0-0.9,0.1-1.4,0.3c-0.4,0.2-0.8,0.4-1.1,0.8c-0.3,0.3-0.5,0.7-0.7,1.1
		s-0.3,0.9-0.3,1.3c0,0.5,0.1,0.9,0.3,1.4c0.2,0.4,0.4,0.8,0.7,1.1s0.7,0.6,1.1,0.8c0.4,0.2,0.9,0.3,1.3,0.3c0.3,0,0.5,0,0.8-0.1
		c0.3-0.1,0.5-0.2,0.8-0.3c0.2-0.1,0.5-0.3,0.7-0.4c0.2-0.2,0.4-0.4,0.5-0.6h0.6c-0.2,0.3-0.4,0.6-0.6,0.8c-0.2,0.2-0.5,0.4-0.8,0.6
		c-0.3,0.2-0.6,0.3-0.9,0.4c-0.3,0.1-0.7,0.1-1,0.1c-0.6,0-1.1-0.1-1.6-0.3c-0.5-0.2-0.9-0.5-1.3-0.9s-0.6-0.8-0.8-1.3
		c-0.2-0.5-0.3-1-0.3-1.6s0.1-1.1,0.3-1.6c0.2-0.5,0.5-0.9,0.8-1.3c0.4-0.4,0.8-0.6,1.3-0.8c0.5-0.2,1-0.3,1.6-0.3
		c0.5,0,1,0.1,1.5,0.2c0.4,0.2,0.8,0.4,1.2,0.7s0.6,0.6,0.8,1c0.2,0.4,0.3,0.8,0.3,1.3c0,0.4-0.1,0.9-0.2,1.2
		c-0.1,0.4-0.3,0.7-0.6,1s-0.5,0.5-0.8,0.7c-0.3,0.2-0.6,0.2-0.9,0.2c-0.2,0-0.3-0.1-0.5-0.2s-0.2-0.3-0.2-0.5h0
		c-0.1,0.2-0.3,0.3-0.6,0.5c-0.3,0.2-0.5,0.2-0.8,0.2c-0.2,0-0.5,0-0.6-0.1c-0.2-0.1-0.3-0.2-0.5-0.3c-0.1-0.1-0.2-0.3-0.3-0.5
		c-0.1-0.2-0.1-0.4-0.1-0.6c0-0.4,0.1-0.7,0.2-1.1c0.1-0.4,0.3-0.7,0.5-1c0.2-0.3,0.5-0.5,0.8-0.7s0.7-0.3,1.1-0.3
		c0.2,0,0.5,0.1,0.7,0.2c0.2,0.1,0.4,0.4,0.5,0.7h0l0.3-0.7h0.6L70.6,226.9z M67.7,226.7c0,0.3,0.1,0.5,0.2,0.7
		c0.2,0.2,0.4,0.3,0.7,0.3c0.3,0,0.5-0.1,0.7-0.2c0.2-0.2,0.4-0.4,0.6-0.6c0.2-0.2,0.3-0.5,0.4-0.8c0.1-0.3,0.1-0.5,0.1-0.8
		c0-0.3-0.1-0.6-0.2-0.8s-0.4-0.3-0.7-0.3c-0.3,0-0.5,0.1-0.7,0.2c-0.2,0.2-0.4,0.4-0.6,0.6c-0.2,0.2-0.3,0.5-0.4,0.8
		C67.7,226.1,67.7,226.4,67.7,226.7z"/>
	<path d="M79.2,229.4c0,0.6-0.1,1.1-0.3,1.5c-0.2,0.4-0.4,0.7-0.7,0.9c-0.3,0.2-0.6,0.3-0.9,0.4c-0.3,0.1-0.6,0.1-0.8,0.1
		s-0.5,0-0.7-0.1c-0.2,0-0.5-0.1-0.7-0.2c-0.2-0.1-0.4-0.2-0.6-0.3s-0.3-0.3-0.5-0.4l0.5-0.5c0.2,0.3,0.5,0.6,0.9,0.7
		c0.3,0.2,0.7,0.2,1.1,0.2c0.3,0,0.6,0,0.8-0.1s0.4-0.2,0.6-0.3s0.3-0.3,0.3-0.5c0.1-0.2,0.1-0.3,0.2-0.5c0-0.2,0.1-0.3,0.1-0.5
		c0-0.2,0-0.3,0-0.4v-0.7h0c-0.2,0.3-0.4,0.5-0.8,0.7s-0.7,0.3-1.1,0.3c-0.4,0-0.7-0.1-1-0.2s-0.6-0.3-0.8-0.5s-0.4-0.5-0.6-0.8
		s-0.2-0.6-0.2-1s0.1-0.7,0.2-1c0.1-0.3,0.3-0.6,0.6-0.8c0.2-0.2,0.5-0.4,0.8-0.5c0.3-0.1,0.7-0.2,1-0.2c0.4,0,0.8,0.1,1.1,0.3
		s0.6,0.4,0.8,0.7h0v-0.8h0.6V229.4z M78.6,227.1c0-0.3-0.1-0.5-0.2-0.8c-0.1-0.2-0.2-0.4-0.4-0.6s-0.4-0.3-0.6-0.4
		c-0.2-0.1-0.5-0.2-0.8-0.2s-0.5,0.1-0.8,0.2c-0.2,0.1-0.4,0.2-0.6,0.4s-0.3,0.4-0.4,0.6c-0.1,0.2-0.2,0.5-0.2,0.8s0.1,0.5,0.2,0.8
		c0.1,0.2,0.2,0.4,0.4,0.6c0.2,0.2,0.4,0.3,0.6,0.4c0.2,0.1,0.5,0.2,0.8,0.2s0.5-0.1,0.8-0.2c0.2-0.1,0.4-0.2,0.6-0.4
		c0.2-0.2,0.3-0.4,0.4-0.6C78.5,227.7,78.6,227.4,78.6,227.1z"/>
	<path d="M80.6,226.1c0-0.1,0-0.2,0-0.3c0-0.1,0-0.3,0-0.4c0-0.1,0-0.3,0-0.4c0-0.1,0-0.2,0-0.3h0.6c0,0.2,0,0.4,0,0.5
		c0,0.2,0,0.3,0,0.3h0c0.1-0.3,0.3-0.5,0.6-0.7c0.3-0.2,0.7-0.3,1.1-0.3c0.3,0,0.6,0.1,0.9,0.3c0.3,0.2,0.5,0.4,0.6,0.8
		c0.2-0.4,0.4-0.6,0.7-0.8s0.6-0.3,1-0.3c0.4,0,0.7,0.1,0.9,0.2c0.2,0.1,0.4,0.3,0.6,0.5s0.2,0.4,0.3,0.7s0.1,0.5,0.1,0.8v3h-0.6
		v-2.9c0-0.2,0-0.4-0.1-0.6s-0.1-0.4-0.2-0.5c-0.1-0.2-0.2-0.3-0.4-0.4s-0.4-0.1-0.6-0.1c-0.3,0-0.5,0.1-0.7,0.2
		c-0.2,0.1-0.3,0.3-0.5,0.4s-0.2,0.4-0.2,0.6c0,0.2-0.1,0.4-0.1,0.6v2.8H84v-3c0-0.5-0.1-0.8-0.3-1.1c-0.2-0.3-0.4-0.4-0.8-0.4
		c-0.2,0-0.5,0-0.7,0.1c-0.2,0.1-0.4,0.2-0.5,0.4s-0.3,0.4-0.4,0.6s-0.1,0.6-0.1,0.9v2.5h-0.6V226.1z"/>
	<path d="M93.4,227.6c0,0.2,0,0.5,0,0.7s0,0.4,0,0.5c0,0.2,0,0.3,0,0.5c0,0.1,0,0.3,0,0.4h-0.6c0-0.2-0.1-0.5-0.1-0.8h0
		c-0.2,0.3-0.4,0.6-0.7,0.7c-0.3,0.2-0.6,0.2-1,0.2c-0.2,0-0.4,0-0.6-0.1c-0.2-0.1-0.4-0.1-0.6-0.3c-0.2-0.1-0.3-0.3-0.4-0.5
		c-0.1-0.2-0.2-0.4-0.2-0.7c0-0.4,0.1-0.7,0.3-0.9s0.4-0.4,0.7-0.5c0.3-0.1,0.6-0.2,0.9-0.2s0.6,0,0.8,0h0.8v-0.3
		c0-0.4-0.1-0.7-0.4-0.9c-0.3-0.2-0.6-0.3-1-0.3c-0.6,0-1.1,0.2-1.5,0.6l-0.4-0.4c0.2-0.2,0.5-0.4,0.9-0.5c0.4-0.1,0.7-0.2,1-0.2
		c0.6,0,1.1,0.1,1.4,0.4c0.4,0.3,0.5,0.7,0.5,1.4V227.6z M92.1,227.2c-0.3,0-0.5,0-0.8,0.1c-0.3,0-0.5,0.1-0.7,0.2s-0.4,0.2-0.5,0.3
		c-0.1,0.1-0.2,0.3-0.2,0.5c0,0.2,0,0.3,0.1,0.4s0.2,0.2,0.3,0.3s0.2,0.1,0.4,0.2s0.3,0.1,0.4,0.1c0.3,0,0.6,0,0.8-0.2
		c0.2-0.1,0.4-0.2,0.5-0.4c0.1-0.2,0.2-0.3,0.3-0.5s0.1-0.4,0.1-0.6v-0.3H92.1z"/>
	<path d="M94.9,222.8c0-0.1,0-0.2,0.1-0.3c0.1-0.1,0.2-0.1,0.3-0.1c0.1,0,0.2,0,0.3,0.1c0.1,0.1,0.1,0.2,0.1,0.3s0,0.3-0.1,0.3
		c-0.1,0.1-0.2,0.1-0.3,0.1c-0.1,0-0.3,0-0.3-0.1C95,223,94.9,222.9,94.9,222.8z M95.1,224.7h0.6v5h-0.6V224.7z"/>
	<path d="M97.5,221.6h0.6v8.1h-0.6V221.6z"/>
	<path d="M99.8,229.2c0-0.1,0-0.3,0.2-0.4c0.1-0.1,0.2-0.1,0.4-0.1c0.1,0,0.3,0,0.4,0.1c0.1,0.1,0.1,0.2,0.1,0.4
		c0,0.1,0,0.3-0.1,0.4c-0.1,0.1-0.2,0.2-0.4,0.2c-0.1,0-0.3,0-0.4-0.2C99.9,229.5,99.8,229.4,99.8,229.2z"/>
	<path d="M106.6,229c-0.2,0.3-0.5,0.5-0.8,0.7s-0.6,0.2-1,0.2c-0.4,0-0.7-0.1-1.1-0.2c-0.3-0.1-0.6-0.3-0.8-0.5
		c-0.2-0.2-0.4-0.5-0.5-0.8s-0.2-0.7-0.2-1s0.1-0.7,0.2-1s0.3-0.6,0.5-0.8c0.2-0.2,0.5-0.4,0.8-0.5c0.3-0.1,0.7-0.2,1.1-0.2
		c0.4,0,0.7,0.1,1,0.2s0.6,0.4,0.8,0.6l-0.5,0.4c-0.2-0.2-0.4-0.4-0.6-0.5s-0.5-0.2-0.7-0.2c-0.3,0-0.6,0.1-0.8,0.2
		c-0.2,0.1-0.5,0.3-0.6,0.4c-0.2,0.2-0.3,0.4-0.4,0.6s-0.1,0.5-0.1,0.8s0,0.5,0.1,0.8s0.2,0.5,0.4,0.6c0.2,0.2,0.4,0.3,0.6,0.4
		c0.2,0.1,0.5,0.2,0.8,0.2c0.3,0,0.5-0.1,0.7-0.2s0.4-0.3,0.6-0.5L106.6,229z"/>
	<path d="M107.1,227.2c0-0.4,0.1-0.7,0.2-1s0.3-0.6,0.5-0.8c0.2-0.2,0.5-0.4,0.8-0.5c0.3-0.1,0.7-0.2,1.1-0.2s0.7,0.1,1,0.2
		s0.6,0.3,0.8,0.5s0.4,0.5,0.5,0.8c0.1,0.3,0.2,0.7,0.2,1s-0.1,0.7-0.2,1c-0.1,0.3-0.3,0.6-0.5,0.8s-0.5,0.4-0.8,0.5s-0.7,0.2-1,0.2
		s-0.7-0.1-1.1-0.2c-0.3-0.1-0.6-0.3-0.8-0.5c-0.2-0.2-0.4-0.5-0.5-0.8S107.1,227.6,107.1,227.2z M107.8,227.2c0,0.3,0,0.5,0.1,0.8
		s0.2,0.5,0.4,0.6c0.2,0.2,0.4,0.3,0.6,0.4c0.2,0.1,0.5,0.2,0.8,0.2s0.6-0.1,0.8-0.2s0.5-0.3,0.6-0.4s0.3-0.4,0.4-0.6
		s0.1-0.5,0.1-0.8s0-0.5-0.1-0.8s-0.2-0.5-0.4-0.6s-0.4-0.3-0.6-0.4s-0.5-0.2-0.8-0.2s-0.6,0.1-0.8,0.2c-0.2,0.1-0.5,0.3-0.6,0.4
		c-0.2,0.2-0.3,0.4-0.4,0.6S107.8,226.9,107.8,227.2z"/>
	<path d="M113.6,226.1c0-0.1,0-0.2,0-0.3c0-0.1,0-0.3,0-0.4c0-0.1,0-0.3,0-0.4c0-0.1,0-0.2,0-0.3h0.6c0,0.2,0,0.4,0,0.5
		c0,0.2,0,0.3,0,0.3h0c0.1-0.3,0.3-0.5,0.6-0.7c0.3-0.2,0.7-0.3,1.1-0.3c0.3,0,0.6,0.1,0.9,0.3c0.3,0.2,0.5,0.4,0.6,0.8
		c0.2-0.4,0.4-0.6,0.7-0.8s0.6-0.3,1-0.3c0.4,0,0.7,0.1,0.9,0.2c0.2,0.1,0.4,0.3,0.6,0.5s0.2,0.4,0.3,0.7s0.1,0.5,0.1,0.8v3h-0.6
		v-2.9c0-0.2,0-0.4-0.1-0.6s-0.1-0.4-0.2-0.5c-0.1-0.2-0.2-0.3-0.4-0.4s-0.4-0.1-0.6-0.1c-0.3,0-0.5,0.1-0.7,0.2
		c-0.2,0.1-0.3,0.3-0.5,0.4s-0.2,0.4-0.2,0.6c0,0.2-0.1,0.4-0.1,0.6v2.8H117v-3c0-0.5-0.1-0.8-0.3-1.1c-0.2-0.3-0.4-0.4-0.8-0.4
		c-0.2,0-0.5,0-0.7,0.1c-0.2,0.1-0.4,0.2-0.5,0.4s-0.3,0.4-0.4,0.6s-0.1,0.6-0.1,0.9v2.5h-0.6V226.1z"/>
</g>
<g>
	<g>
		<path d="M24,213.6L24,213.6c0.2-0.1,0.3-0.2,0.5-0.2c0.2-0.1,0.4-0.1,0.6-0.1c0.3,0,0.6,0.1,0.9,0.2c0.3,0.1,0.5,0.3,0.7,0.5
			c0.2,0.2,0.4,0.5,0.5,0.7c0.1,0.3,0.2,0.6,0.2,0.9c0,0.3-0.1,0.7-0.2,1c-0.1,0.3-0.3,0.5-0.5,0.7c-0.2,0.2-0.5,0.4-0.8,0.5
			s-0.6,0.2-1,0.2c-0.4,0-0.7-0.1-1-0.2s-0.6-0.3-0.8-0.5c-0.2-0.2-0.4-0.5-0.5-0.7c-0.1-0.3-0.2-0.6-0.2-1c0-0.2,0-0.4,0.1-0.6
			c0-0.2,0.1-0.3,0.2-0.5c0.1-0.2,0.1-0.3,0.2-0.5c0.1-0.1,0.2-0.3,0.2-0.4l2.1-3.4H26L24,213.6z M24.9,213.8c-0.3,0-0.5,0-0.7,0.1
			s-0.4,0.2-0.6,0.4s-0.3,0.4-0.4,0.6c-0.1,0.2-0.1,0.4-0.1,0.7c0,0.3,0,0.5,0.1,0.7c0.1,0.2,0.2,0.4,0.4,0.6s0.3,0.3,0.6,0.4
			c0.2,0.1,0.5,0.1,0.7,0.1c0.3,0,0.5,0,0.7-0.1s0.4-0.2,0.6-0.4c0.2-0.2,0.3-0.3,0.4-0.6c0.1-0.2,0.1-0.5,0.1-0.7
			c0-0.2,0-0.5-0.1-0.7c-0.1-0.2-0.2-0.4-0.4-0.6s-0.4-0.3-0.6-0.4S25.2,213.8,24.9,213.8z"/>
		<path d="M30.4,211.1L30.4,211.1l-1.4,1.1l-0.4-0.5l1.9-1.5H31v7.6h-0.6V211.1z"/>
		<path d="M34.1,216.2c0.1,0.4,0.3,0.6,0.6,0.8c0.2,0.2,0.6,0.3,1,0.3c0.3,0,0.5,0,0.7-0.1s0.4-0.2,0.5-0.4s0.2-0.3,0.3-0.5
			c0.1-0.2,0.1-0.4,0.1-0.6c0-0.3-0.1-0.5-0.2-0.7c-0.1-0.2-0.3-0.4-0.5-0.5c-0.2-0.1-0.4-0.2-0.6-0.3c-0.2-0.1-0.5-0.1-0.7-0.1
			h-0.3v-0.6h0.3c0.2,0,0.4,0,0.6-0.1s0.4-0.1,0.5-0.3s0.3-0.3,0.4-0.4c0.1-0.2,0.2-0.4,0.2-0.7c0-0.4-0.1-0.7-0.4-1
			c-0.3-0.3-0.6-0.4-1-0.4c-0.3,0-0.6,0.1-0.8,0.2s-0.4,0.4-0.6,0.6l-0.6-0.3c0.2-0.4,0.5-0.7,0.9-0.9s0.8-0.3,1.2-0.3
			c0.3,0,0.6,0,0.8,0.1c0.3,0.1,0.5,0.2,0.7,0.4s0.3,0.4,0.5,0.6c0.1,0.2,0.2,0.5,0.2,0.9c0,0.4-0.1,0.8-0.3,1.1
			c-0.2,0.3-0.6,0.5-1,0.7v0c0.2,0,0.5,0.1,0.7,0.2c0.2,0.1,0.4,0.3,0.5,0.4c0.1,0.2,0.3,0.4,0.3,0.6c0.1,0.2,0.1,0.4,0.1,0.7
			c0,0.3,0,0.6-0.1,0.8s-0.2,0.5-0.4,0.7c-0.2,0.2-0.4,0.4-0.7,0.5s-0.6,0.2-1,0.2c-0.6,0-1.1-0.1-1.5-0.4c-0.4-0.2-0.7-0.6-0.9-1.1
			L34.1,216.2z"/>
		<path d="M41.7,212.1c0-0.3,0.1-0.6,0.2-0.8c0.1-0.2,0.3-0.5,0.4-0.6s0.4-0.3,0.7-0.4c0.3-0.1,0.5-0.1,0.8-0.1c0.3,0,0.6,0,0.8,0.1
			c0.3,0.1,0.5,0.2,0.7,0.4c0.2,0.2,0.3,0.4,0.4,0.6c0.1,0.2,0.2,0.5,0.2,0.8c0,0.2,0,0.4-0.1,0.5c-0.1,0.2-0.1,0.3-0.2,0.5
			c-0.1,0.2-0.2,0.3-0.4,0.4s-0.3,0.2-0.5,0.2v0c0.2,0,0.5,0.1,0.6,0.3c0.2,0.1,0.3,0.3,0.5,0.5c0.1,0.2,0.2,0.4,0.3,0.6
			s0.1,0.4,0.1,0.7c0,0.3-0.1,0.7-0.2,0.9c-0.1,0.3-0.3,0.5-0.5,0.7c-0.2,0.2-0.5,0.3-0.7,0.5c-0.3,0.1-0.6,0.2-0.9,0.2
			c-0.3,0-0.6-0.1-0.9-0.2c-0.3-0.1-0.5-0.3-0.7-0.5c-0.2-0.2-0.4-0.4-0.5-0.7c-0.1-0.3-0.2-0.6-0.2-0.9c0-0.2,0-0.4,0.1-0.7
			s0.2-0.4,0.3-0.6c0.1-0.2,0.3-0.3,0.5-0.5c0.2-0.1,0.4-0.2,0.6-0.3v0c-0.2,0-0.4-0.1-0.5-0.2s-0.3-0.2-0.4-0.4
			c-0.1-0.2-0.2-0.3-0.2-0.5C41.7,212.4,41.7,212.3,41.7,212.1z M42.2,215.7c0,0.2,0,0.4,0.1,0.6s0.2,0.4,0.3,0.5s0.3,0.3,0.5,0.4
			c0.2,0.1,0.4,0.1,0.7,0.1c0.3,0,0.5,0,0.7-0.1c0.2-0.1,0.4-0.2,0.5-0.4c0.1-0.2,0.3-0.3,0.3-0.5c0.1-0.2,0.1-0.4,0.1-0.6
			c0-0.2,0-0.5-0.1-0.7s-0.2-0.4-0.3-0.5c-0.1-0.1-0.3-0.3-0.5-0.3c-0.2-0.1-0.4-0.1-0.6-0.1c-0.2,0-0.4,0-0.6,0.1
			c-0.2,0.1-0.4,0.2-0.5,0.3c-0.1,0.1-0.3,0.3-0.3,0.5S42.2,215.5,42.2,215.7z M42.4,212.1c0,0.2,0,0.4,0.1,0.5
			c0.1,0.2,0.2,0.3,0.3,0.4c0.1,0.1,0.3,0.2,0.4,0.3c0.2,0.1,0.4,0.1,0.6,0.1c0.2,0,0.4,0,0.6-0.1s0.3-0.2,0.4-0.3
			c0.1-0.1,0.2-0.3,0.3-0.4c0.1-0.2,0.1-0.3,0.1-0.5c0-0.4-0.1-0.8-0.4-1s-0.6-0.4-1-0.4c-0.4,0-0.7,0.1-1,0.4
			S42.4,211.7,42.4,212.1z"/>
		<path d="M49.2,211.1L49.2,211.1l-1.4,1.1l-0.4-0.5l1.9-1.5h0.5v7.6h-0.6V211.1z"/>
		<path d="M53.6,213.6L53.6,213.6c0.2-0.1,0.3-0.2,0.5-0.2c0.2-0.1,0.4-0.1,0.6-0.1c0.3,0,0.6,0.1,0.9,0.2c0.3,0.1,0.5,0.3,0.7,0.5
			c0.2,0.2,0.4,0.5,0.5,0.7c0.1,0.3,0.2,0.6,0.2,0.9c0,0.3-0.1,0.7-0.2,1c-0.1,0.3-0.3,0.5-0.5,0.7c-0.2,0.2-0.5,0.4-0.8,0.5
			s-0.6,0.2-1,0.2c-0.4,0-0.7-0.1-1-0.2s-0.6-0.3-0.8-0.5c-0.2-0.2-0.4-0.5-0.5-0.7c-0.1-0.3-0.2-0.6-0.2-1c0-0.2,0-0.4,0.1-0.6
			c0-0.2,0.1-0.3,0.2-0.5c0.1-0.2,0.1-0.3,0.2-0.5c0.1-0.1,0.2-0.3,0.2-0.4l2.1-3.4h0.8L53.6,213.6z M54.6,213.8
			c-0.3,0-0.5,0-0.7,0.1s-0.4,0.2-0.6,0.4s-0.3,0.4-0.4,0.6c-0.1,0.2-0.1,0.4-0.1,0.7c0,0.3,0,0.5,0.1,0.7c0.1,0.2,0.2,0.4,0.4,0.6
			s0.3,0.3,0.6,0.4c0.2,0.1,0.5,0.1,0.7,0.1c0.3,0,0.5,0,0.7-0.1s0.4-0.2,0.6-0.4c0.2-0.2,0.3-0.3,0.4-0.6c0.1-0.2,0.1-0.5,0.1-0.7
			c0-0.2,0-0.5-0.1-0.7c-0.1-0.2-0.2-0.4-0.4-0.6s-0.4-0.3-0.6-0.4S54.9,213.8,54.6,213.8z"/>
		<path d="M60.1,214c0-0.3,0-0.6,0-0.9c0-0.3,0.1-0.6,0.1-0.9c0.1-0.3,0.2-0.6,0.3-0.8s0.3-0.5,0.5-0.7s0.4-0.4,0.7-0.5
			s0.6-0.2,0.9-0.2c0.4,0,0.7,0.1,0.9,0.2s0.5,0.3,0.7,0.5c0.2,0.2,0.3,0.4,0.5,0.7s0.2,0.5,0.3,0.8s0.1,0.6,0.1,0.9
			c0,0.3,0,0.6,0,0.9c0,0.3,0,0.6,0,0.9c0,0.3-0.1,0.6-0.1,0.9s-0.2,0.6-0.3,0.8c-0.1,0.3-0.3,0.5-0.5,0.7c-0.2,0.2-0.4,0.4-0.7,0.5
			S63,218,62.7,218c-0.4,0-0.7-0.1-0.9-0.2s-0.5-0.3-0.7-0.5s-0.3-0.4-0.5-0.7c-0.1-0.3-0.2-0.5-0.3-0.8c-0.1-0.3-0.1-0.6-0.1-0.9
			C60.2,214.6,60.1,214.3,60.1,214z M60.9,214c0,0.2,0,0.4,0,0.7c0,0.2,0,0.5,0.1,0.7s0.1,0.5,0.2,0.7c0.1,0.2,0.2,0.4,0.3,0.6
			c0.1,0.2,0.3,0.3,0.5,0.4c0.2,0.1,0.4,0.2,0.7,0.2c0.3,0,0.5-0.1,0.7-0.2c0.2-0.1,0.4-0.3,0.5-0.4c0.1-0.2,0.2-0.4,0.3-0.6
			c0.1-0.2,0.1-0.5,0.2-0.7s0.1-0.5,0.1-0.7c0-0.2,0-0.5,0-0.7c0-0.2,0-0.4,0-0.7c0-0.2,0-0.5-0.1-0.7s-0.1-0.5-0.2-0.7
			c-0.1-0.2-0.2-0.4-0.3-0.6c-0.1-0.2-0.3-0.3-0.5-0.4c-0.2-0.1-0.4-0.2-0.7-0.2c-0.3,0-0.5,0.1-0.7,0.2c-0.2,0.1-0.4,0.3-0.5,0.4
			s-0.2,0.4-0.3,0.6c-0.1,0.2-0.1,0.5-0.2,0.7s-0.1,0.5-0.1,0.7C60.9,213.6,60.9,213.8,60.9,214z"/>
		<path d="M65.7,217.1l2.9-3c0.1-0.1,0.3-0.3,0.4-0.4c0.1-0.1,0.2-0.3,0.3-0.5c0.1-0.2,0.2-0.3,0.3-0.5s0.1-0.4,0.1-0.6
			c0-0.4-0.1-0.8-0.4-1c-0.3-0.3-0.6-0.4-1.1-0.4c-0.4,0-0.7,0.1-1,0.3c-0.3,0.2-0.4,0.5-0.5,0.9l-0.8-0.1c0.1-0.6,0.4-1,0.8-1.3
			s0.9-0.4,1.5-0.4c0.3,0,0.6,0,0.8,0.1c0.3,0.1,0.5,0.2,0.7,0.4c0.2,0.2,0.4,0.4,0.5,0.6c0.1,0.2,0.2,0.5,0.2,0.8
			c0,0.3,0,0.6-0.1,0.8c-0.1,0.3-0.2,0.5-0.4,0.7c-0.1,0.2-0.3,0.4-0.5,0.6c-0.2,0.2-0.4,0.4-0.6,0.6l-2.4,2.4h4v0.6h-4.7V217.1z"/>
		<path d="M71,214c0-0.3,0-0.6,0-0.9c0-0.3,0.1-0.6,0.1-0.9c0.1-0.3,0.2-0.6,0.3-0.8s0.3-0.5,0.5-0.7s0.4-0.4,0.7-0.5
			s0.6-0.2,0.9-0.2s0.7,0.1,0.9,0.2c0.3,0.1,0.5,0.3,0.7,0.5s0.3,0.4,0.5,0.7c0.1,0.3,0.2,0.5,0.3,0.8s0.1,0.6,0.1,0.9
			c0,0.3,0,0.6,0,0.9c0,0.3,0,0.6,0,0.9c0,0.3-0.1,0.6-0.1,0.9s-0.2,0.6-0.3,0.8c-0.1,0.3-0.3,0.5-0.5,0.7s-0.4,0.4-0.7,0.5
			c-0.3,0.1-0.6,0.2-0.9,0.2s-0.7-0.1-0.9-0.2s-0.5-0.3-0.7-0.5s-0.3-0.4-0.5-0.7c-0.1-0.3-0.2-0.5-0.3-0.8
			c-0.1-0.3-0.1-0.6-0.1-0.9C71,214.6,71,214.3,71,214z M71.7,214c0,0.2,0,0.4,0,0.7c0,0.2,0,0.5,0.1,0.7s0.1,0.5,0.2,0.7
			c0.1,0.2,0.2,0.4,0.3,0.6c0.1,0.2,0.3,0.3,0.5,0.4c0.2,0.1,0.4,0.2,0.7,0.2c0.3,0,0.5-0.1,0.7-0.2c0.2-0.1,0.4-0.3,0.5-0.4
			c0.1-0.2,0.2-0.4,0.3-0.6c0.1-0.2,0.1-0.5,0.2-0.7s0.1-0.5,0.1-0.7c0-0.2,0-0.5,0-0.7c0-0.2,0-0.4,0-0.7c0-0.2,0-0.5-0.1-0.7
			s-0.1-0.5-0.2-0.7c-0.1-0.2-0.2-0.4-0.3-0.6c-0.1-0.2-0.3-0.3-0.5-0.4c-0.2-0.1-0.4-0.2-0.7-0.2c-0.3,0-0.5,0.1-0.7,0.2
			c-0.2,0.1-0.4,0.3-0.5,0.4s-0.2,0.4-0.3,0.6c-0.1,0.2-0.1,0.5-0.2,0.7s-0.1,0.5-0.1,0.7C71.7,213.6,71.7,213.8,71.7,214z"/>
		<path d="M77.9,213.6L77.9,213.6c0.1-0.1,0.3-0.2,0.5-0.2c0.2-0.1,0.4-0.1,0.6-0.1c0.3,0,0.6,0.1,0.9,0.2s0.5,0.3,0.7,0.5
			c0.2,0.2,0.4,0.5,0.5,0.7c0.1,0.3,0.2,0.6,0.2,0.9c0,0.3-0.1,0.7-0.2,1s-0.3,0.5-0.5,0.7c-0.2,0.2-0.5,0.4-0.8,0.5
			c-0.3,0.1-0.6,0.2-1,0.2c-0.4,0-0.7-0.1-1-0.2s-0.6-0.3-0.8-0.5c-0.2-0.2-0.4-0.5-0.5-0.7c-0.1-0.3-0.2-0.6-0.2-1
			c0-0.2,0-0.4,0.1-0.6c0-0.2,0.1-0.3,0.2-0.5c0.1-0.2,0.1-0.3,0.2-0.5c0.1-0.1,0.2-0.3,0.2-0.4l2.1-3.4H80L77.9,213.6z M78.9,213.8
			c-0.2,0-0.5,0-0.7,0.1s-0.4,0.2-0.6,0.4s-0.3,0.4-0.4,0.6c-0.1,0.2-0.1,0.4-0.1,0.7c0,0.3,0,0.5,0.1,0.7c0.1,0.2,0.2,0.4,0.4,0.6
			c0.2,0.2,0.3,0.3,0.6,0.4c0.2,0.1,0.5,0.1,0.7,0.1s0.5,0,0.7-0.1c0.2-0.1,0.4-0.2,0.6-0.4s0.3-0.3,0.4-0.6
			c0.1-0.2,0.1-0.5,0.1-0.7c0-0.2,0-0.5-0.1-0.7c-0.1-0.2-0.2-0.4-0.4-0.6s-0.4-0.3-0.6-0.4C79.4,213.9,79.1,213.8,78.9,213.8z"/>
	</g>
</g>
</svg>
