<svg xmlns="http://www.w3.org/2000/svg" viewBox="0 0 144 144" enable-background="new 0 0 144 144"><style type="text/css">.st0{fill:#FFFFFF;}</style><path class="st0" d="M0 0h144v144h-144v-144zm72 23.2c-27.6 0-50 22.4-50 50 0 22.1 14.3 40.8 34.2 47.5 2.5.5 3.4-1.1 3.4-2.4 0-1.2 0-4.3-.1-8.5-13.9 3-16.8-6.7-16.8-6.7-2.3-5.8-5.6-7.3-5.6-7.3-4.5-3.1.3-3 .3-3 5 .4 7.7 5.2 7.7 5.2 4.5 7.6 11.7 5.4 14.6 4.2.4-3.2 1.7-5.4 3.2-6.7-11.1-1.3-22.8-5.6-22.8-24.7 0-5.5 2-9.9 5.1-13.4-.5-1.3-2.2-6.4.5-13.2 0 0 4.2-1.3 13.8 5.1 4-1.1 8.3-1.7 12.5-1.7 4.2 0 8.5.6 12.5 1.7 9.6-6.5 13.8-5.1 13.8-5.1 2.7 6.9 1 12 .5 13.2 3.2 3.5 5.1 8 5.1 13.4 0 19.2-11.7 23.4-22.8 24.7 1.8 1.5 3.4 4.6 3.4 9.3 0 6.7-.1 12.1-.1 13.7 0 1.3.9 2.9 3.4 2.4 19.9-6.6 34.2-25.4 34.2-47.4 0-27.9-22.4-50.3-50-50.3"/></svg>