<svg xmlns="http://www.w3.org/2000/svg" viewBox="0 0 144 144" enable-background="new 0 0 144 144"><style type="text/css">.st0{fill:#FFFFFF;}</style><path class="st0" d="M.1.1h143.7v143.7h-143.7v-143.7zm0 143.8v.1h143.9v-144h-144v144h.1v-.1h.1v-143.6h143.4v143.4h-143.5v.2h.1-.1zm24.6-107.1v70.4c0 6.7 5.5 12.1 12.2 12.1h70.4c6.7 0 12.1-5.5 12.1-12.1v-70.4c0-6.7-5.5-12.1-12.1-12.1h-70.5c-6.7 0-12.1 5.4-12.1 12.1zm79.6-1.6c2.3 0 4.3 1.9 4.3 4.3v10.2c0 2.3-1.9 4.3-4.3 4.3h-10.7c-2.3 0-4.3-1.9-4.3-4.3v-10.2c0-2.3 1.9-4.3 4.3-4.3h10.7zm4.3 69.5c0 2.1-1.7 3.8-3.8 3.8h-65.8c-2.1 0-3.8-1.7-3.8-3.8v-40h8.7c-.8 2.6-1.2 5.3-1.2 8.1 0 15.7 13.2 28.5 29.4 28.5s29.4-12.8 29.4-28.5c0-2.8-.4-5.5-1.2-8.1h8.3v40zm-17.5-32.9c0 10.2-8.5 18.4-19 18.4s-19-8.3-19-18.4c0-10.2 8.5-18.4 19-18.4s19 8.2 19 18.4z"/></svg>