<?xml version="1.0" encoding="utf-8"?>
<!-- Generator: Adobe Illustrator 19.1.0, SVG Export Plug-In . SVG Version: 6.00 Build 0)  -->
<svg version="1.1" id="Layer_1" xmlns="http://www.w3.org/2000/svg" xmlns:xlink="http://www.w3.org/1999/xlink" x="0px" y="0px"
	 viewBox="0 0 265 189.3" style="enable-background:new 0 0 265 189.3;" xml:space="preserve">
<style type="text/css">
	.st0{fill:none;}
	.st1{fill:#FFFFFF;}
	.st2{fill:#333333;}
</style>
<path class="st0" d="M128.9,18.4c1.2-0.1,2.5-0.1,3.7-0.1c0,0,0,0,0,0C131.4,18.3,130.1,18.3,128.9,18.4c2.8-0.3,4.3-1,4.4-1.9
	C133.1,17.4,131.7,18,128.9,18.4c-26.5,1.8-47.5,24-47.5,50.9c0,0,0,0.1,0,0.1C81.4,42.4,102.4,20.3,128.9,18.4z"/>
<path class="st0" d="M174.2,12.1c-1.7-1.7-3.5-3.4-5.4-5C170.7,8.7,172.5,10.4,174.2,12.1z"/>
<path class="st0" d="M106.7,7.5c0-0.5,0-1,0-1.5c0,0,0,0,0,0C106.7,6.5,106.7,7,106.7,7.5z"/>
<path class="st0" d="M40.5,125.9c0.5,0.5,0.9,0.7,1.1,0.9C41.4,126.7,41,126.4,40.5,125.9c-0.3-0.5-0.6-1.1-0.6-2.1
	C39.9,124.8,40.2,125.5,40.5,125.9z"/>
<path class="st0" d="M174.2,12.1c15.1,15,24.7,33.1,28.7,44.3c0.1,0.2,0.1,0.4,0.2,0.6c-0.1-0.2-0.1-0.4-0.2-0.6
	C198.9,45.2,189.3,27.1,174.2,12.1z"/>
<path class="st0" d="M47,96.3c1.2,3.1,1.6,5.6,1.6,7.7C48.6,101.9,48.2,99.3,47,96.3c-1.6-4.1-4.7-12.1-4.8-21.4
	C42.3,84.2,45.4,92.2,47,96.3z"/>
<path class="st0" d="M109.1,151.5C78.6,148.9,58,130.2,48,105.9c0,0,0,0,0,0C58,130.2,78.6,148.9,109.1,151.5
	c16.1,1.4,33.4-8.1,42.3-20.1c0,0,0.1,0,0.1,0c0,0-0.1,0-0.1,0C142.5,143.3,125.2,152.9,109.1,151.5z"/>
<path class="st0" d="M193.9,102.6c0.1-0.4,0.1-0.8,0.3-1.1c2.2-5.3,4.7-10.3,9.6-9.1c1.6,0.5,2.9,1.2,4,2c0-1,0-2,0-3
	c0,1,0,1.9,0,2.9c-1.1-0.8-2.4-1.4-4-1.9c-4.9-1.2-7.4,3.9-9.6,9.1c-0.1,0.3-0.3,0.7-0.4,1.1L193.9,102.6
	C193.9,102.6,193.9,102.6,193.9,102.6z"/>
<path class="st0" d="M204,120.5c-0.2,0.2-0.4,0.3-0.6,0.5c0,0,0.1,0.1,0.1,0.1c0,0-0.1-0.1-0.1-0.1
	C203.6,120.9,203.8,120.7,204,120.5c1.3-1.1,2.2-2.1,2.8-2.9c0.6-0.8,0.9-1.2,0.9-1.2l0,0c0,0-0.3,0.5-0.9,1.2
	C206.1,118.4,205.3,119.4,204,120.5z"/>
<path class="st0" d="M186.9,134c0,0.3,0,0.7,0,1C186.9,134.6,186.9,134.3,186.9,134L186.9,134z"/>
<path class="st0" d="M84.9,94.8c0-1.6,0.5-2.7,1.3-3.7c0,0,0,0,0-0.1C85.4,92,84.9,93.2,84.9,94.8c0,0.4,0.3,0.6,0.8,0.6
	C85.2,95.3,84.9,95.2,84.9,94.8z"/>
<path class="st0" d="M193.4,113.2c0.2,1.9,0.6,3.8,1.4,5.4c0.4,0.8,0.9,1.3,1.5,1.7c0.4,0.3,0.9,0.4,1.4,0.4c-0.5,0-1-0.2-1.4-0.4
	c-0.6-0.4-1.1-0.9-1.5-1.7C194,117.1,193.7,115.1,193.4,113.2c-0.2-1.9-0.1-3.7-0.1-5.2c0.1-1.6,0.2-2.9,0.3-3.8
	c-0.1,0.9-0.4,2.2-0.4,3.8C193.2,109.5,193.2,111.4,193.4,113.2z"/>
<path class="st0" d="M182.9,114.4c-2.1,1.9-3.5,5-3.5,8.6l-15.5-12.6l-0.3-0.3c-8.6,6.5-19.3,10.4-30.9,10.4
	c-19.9,0-37.1-11.4-45.6-28c-0.4,0.6-0.6,1.3-0.6,2.2c0-0.9,0.2-1.5,0.6-2.1c8.5,16.6,25.7,27.9,45.6,27.9
	c11.6,0,22.3-3.9,30.9-10.4l0.3,0.2c0,0,0,0,0,0l15.4,12.6c0,0.1-0.2,0.1-0.2,0.2c0,0,0,0,0,0c0-0.1,0.2-0.1,0.2-0.2
	C179.2,119.5,180.8,116.3,182.9,114.4z"/>
<path class="st0" d="M33.9,64.7c-2.8,6.4-3.5,13.7-1.9,20.4c0.8,3.5,1.2,6.8,3.2,9.8c2,2.9,6.3,5.1,6.3,8.9c0,5.6-3.8,6-4.3,12.5
	c-0.3,3.5,1.9,7.3,2.9,8.9c-0.2-0.4-0.3-0.8-0.3-1.4c0-2.1,1-5.6,5.3-11.4c1.1-1.4,2.9-3.3,2.9-6.5c0,0,0,0,0,0c0.2,0.5,0,1,1,1.4
	V44.8C42,50.5,38.2,54.9,33.9,64.7z"/>
<path class="st0" d="M14.7,88.5C13.8,49.6,25,23.3,49,6.8V2.3H0v187h49v-9.4C32,161.4,15.6,131.7,14.7,88.5z"/>
<path class="st1" d="M109.3,151.5c16.1,1.4,33.4-8.1,42.4-20.1c0,0-0.1-0.2-0.1-0.2c8-9.2,9.4-13.7,12.2-20.7l-0.1,0c0,0,0,0,0.1,0
	c0,0,0,0,0,0l14.6,11.9L102.8,8.4c0.8,2.7-0.7,5.9-2.5,8.4c-5.4,7.5-16,9.4-24.2,12.5c-0.1,0-0.1,0-0.2,0.1c-0.7,0.3-1.3,0.5-2,0.8
	c-0.1,0-0.2,0.1-0.3,0.1c0,0,0,0,0,0c-0.4,0.2-0.8,0.3-1.2,0.5c-5.7,2.3-14.9,7.3-19.6,10.9c-1.4,1.1-2.8,2.1-3.8,3.1v62.6
	C59,131,79.4,148.9,109.3,151.5z"/>
<path class="st1" d="M49,179.9v9.4h8.8C54.9,186.6,52,183.5,49,179.9z"/>
<path class="st1" d="M55.8,2.3H49v4.5C51,5.3,53.3,3.7,55.8,2.3z"/>
<path class="st1" d="M186.7,134c0,0.3,0.2,0.7,0.2,1c0.1,4.9,2.4,9.4,6.5,11.9c1.7,1,3.5,1.5,5.3,1.7c-3.9,13-9.1,26.7-16,40.7H265
	V2.3H162.9c2,1.5,4,3.1,5.9,4.7s3.7,3.3,5.4,5c15.1,15,24.7,33.1,28.7,44.3c0.1,0.2,0.1,0.4,0.2,0.6c2.9,8.5,4.8,20.1,4.7,34.3
	c0,1,0,1.9,0,2.9c-1.1-0.8-2.4-1.4-4-1.9c-4.9-1.2-7.4,3.9-9.6,9.1c-0.1,0.3-0.3,0.7-0.4,1.1l-14.6-11.7c3-6.5,4.7-13.8,4.7-21.4
	c0-17-8.4-32.1-21.2-41.4c-0.1,0-0.1-0.1-0.2-0.1c0,0,0,0-0.1,0c-13.7-10.5-43.2-23.5-54.9-25.1L179.2,123
	C179.2,128.5,182.5,133.4,186.7,134z"/>
<path class="st1" d="M76.1,29.3c3.4-1.3,6.7-2.4,9.7-3.5C82.9,26.9,79.6,28,76.1,29.3z"/>
<path class="st1" d="M14.3,88.5c-0.9-42.7,13-70.2,41.6-86.2H0v187h57.8C39.4,172.3,15.4,140,14.3,88.5z"/>
<path class="st1" d="M132.6,120.6c-19.9,0-37.1-11.4-45.6-27.9c-0.4,0.6-0.6,1.2-0.6,2.1c0,0.4-0.4,0.6-0.8,0.6c0,0,0,0,0,0
	c-0.4,0-0.8-0.1-0.8-0.6c0-1.5,0.3-2.7,1.1-3.7c-3.1-6.6-5-13.9-5-21.6c0,0,0,0,0,0c0,0,0.2,0,0.2,0c0-27,21.1-49.1,47.6-51
	c2.8-0.3,4.3-0.9,4.4-1.8c0.2-2.3-8.3-6.1-26.6-10.5c0,0.5,0.1,1,0,1.5c-0.3,7.7-6.3,16.7-18.9,20.6C50.4,39.8,42.1,59.3,42.2,74.9
	c0.1,9.4,3.2,17.3,4.8,21.4c1.2,3.1,1.6,5.6,1.6,7.7c0,0.7-0.1,1.3-0.2,2c2,5,4.5,9.8,7.5,14.2c11.3,17,29.2,29.1,53.4,31.1
	c16.1,1.4,33.3-7.5,42.2-20.3c0,0,0,0,0,0c0,0,0,0,0,0c8-9.3,9.4-13.3,12.2-20.5l0,0l-0.3-0.2C154.9,116.7,144.2,120.6,132.6,120.6z
	 M65.5,84.2c-0.4,0.1-0.8,0.1-1.2,0.1c-1.2,0-2.5-0.5-3.5-1.3c-1.1-0.9-2-2.3-2.2-3.5c-0.7,0.1-1.4,0.1-2,0.1
	c-3.7,0-5.5-1.5-8.1-5.7c-0.2-0.4-0.1-0.8,0.3-1.1c0.4-0.2,0.8-0.1,1.1,0.3c2.7,4.5,4.2,5.4,8.8,4.9c0.2-0.8,0.5-1.8,1.1-2.8
	c-3.4-0.5-5-3.1-5.9-5.4c-0.2-0.4,0-0.9,0.4-1c0.4-0.2,0.9,0,1,0.4c1,2.3,2.3,4.4,5.6,4.6c1-1.2,2.4-2.1,4.2-2.3
	c1.8-0.2,2.8,0.3,3.3,0.8c0.7,0.6,1,1.4,1.1,2.4l0,0.3C69.4,78.2,69.6,83.2,65.5,84.2z M114.9,138.4c-0.8,3.3-4.4,4-6.6,4.4
	s-9.7-2.4-7.4-5.6c0.6-0.8,5.8,0.4,11-2.6C112.9,134,115.6,135.2,114.9,138.4z"/>
<path class="st1" d="M73.6,30.3c-0.4,0.2-0.8,0.3-1.2,0.5C72.8,30.6,73.2,30.5,73.6,30.3C73.6,30.3,73.6,30.3,73.6,30.3z"/>
<path class="st1" d="M93.9,1.9c-0.2,0-0.3,0.1-0.5,0.1C93.6,2,93.8,1.9,93.9,1.9L93.9,1.9z"/>
<path class="st1" d="M162.5,27.8C162.5,27.8,162.5,27.8,162.5,27.8C162.4,27.8,162.4,27.8,162.5,27.8
	C162.5,27.8,162.5,27.8,162.5,27.8z"/>
<path class="st2" d="M68.2,72.2c-0.6-0.3-1.6-1-3.3-0.8c-1.8,0.2-3.2,1.1-4.2,2.3c-3.2-0.1-4.6-2.3-5.6-4.6c-0.2-0.4-0.6-0.6-1-0.4
	c-0.4,0.2-0.6,0.6-0.4,1c1,2.3,2.5,4.9,5.9,5.4c-0.6,1-0.9,2-1.1,2.8c-4.5,0.5-6-0.4-8.8-4.9c-0.2-0.4-0.7-0.5-1.1-0.3
	c-0.4,0.2-0.5,0.7-0.3,1.1c2.6,4.3,4.4,5.7,8.1,5.7c0.6,0,1.3-0.1,2-0.1c0.2,1.2,1.1,2.6,2.2,3.5c1.1,0.9,2.3,1.3,3.5,1.3
	c0.4,0,0.8,0,1.2-0.1C69.6,83.2,70.5,73.2,68.2,72.2z"/>
<path class="st1" d="M132.6,22.8c-25.7,0-46.5,20.9-46.5,46.5c0,25.7,20.9,46.5,46.5,46.5c25.7,0,46.5-20.9,46.5-46.5
	C179.2,43.7,158.3,22.8,132.6,22.8z M116,64.6c0-10,8.1-18.2,18.2-18.2s18.2,8.1,18.2,18.2c0,10-8.1,18.2-18.2,18.2
	S116,74.7,116,64.6z M162,69.5c-0.2,0-0.5,0-0.8,0c-0.1,3.1-0.6,6.1-1.7,8.9c-1.2,3.3-3.1,6.2-5.4,8.5c-0.6,0.6-1.2,1.1-1.8,1.6
	l-0.5,0.4l-0.4,0.3c-0.3,0.2-0.6,0.4-0.9,0.6c-1.3,0.8-2.6,1.4-3.9,1.9c-2.6,1-5,1.4-7.2,1.5c-2.2,0.1-4.1-0.1-5.6-0.3
	c-1.5-0.2-2.7-0.6-3.5-0.8c-0.8-0.3-1.2-0.4-1.2-0.4s0.4,0,1.2,0.1c0.8,0.1,2,0.2,3.5,0.1c1.5,0,3.3-0.2,5.3-0.5
	c2-0.4,4.2-1.1,6.3-2.2c1.1-0.6,2.2-1.3,3.1-2c0.3-0.2,0.5-0.4,0.8-0.7l0.4-0.3c0,0,0.2-0.2,0.3-0.3c0.5-0.4,0.9-0.9,1.4-1.4
	c1.8-2.1,3.1-4.6,4-7.4c0.9-2.8,1.3-5.9,1.1-9c-0.2-3.1-1-6.2-2.3-9c-0.7-1.5-1.4-2.7-2.4-4.1c-0.9-1.3-1.9-2.5-3-3.5
	c-2.2-2.2-4.9-3.8-7.6-5c-2.8-1.1-5.6-1.8-8.4-2c-2.8-0.1-5.4,0.1-7.8,0.7c-2.4,0.6-4.5,1.5-6.3,2.4c-0.5,0.2-0.9,0.5-1.3,0.8
	c-0.4,0.2-0.8,0.5-1.2,0.7c-0.7,0.5-1.4,1-2,1.5c-1.1,0.9-2,1.8-2.6,2.3c-0.6,0.6-0.9,0.9-0.9,0.9s0.2-0.4,0.6-1.1
	c0.5-0.7,1.1-1.7,2.1-2.8c0.5-0.6,1.1-1.2,1.8-1.8c0.3-0.3,0.7-0.6,1.1-1c0.4-0.3,0.8-0.6,1.2-0.9c1.8-1.3,3.9-2.6,6.5-3.4
	c2.5-0.9,5.5-1.5,8.6-1.6c3.1,0,6.5,0.4,9.8,1.6c3.3,1.2,6.4,3,9.2,5.5c1.4,1.2,2.6,2.6,3.7,4.1c1.1,1.4,2.1,3.1,2.9,4.8
	c0.5,1,0.9,2,1.2,3.1c4.5-1.3,5.4-3.5,6.7-7.5c0.1-0.4,0.6-0.6,1-0.5c0.4,0.1,0.6,0.6,0.5,1c-1.4,4.3-2.7,7.1-7.7,8.5
	c0.6,2,0.9,4.1,1,6.2c0,0,0,0.1,0,0.1c6.8,0.2,9-2.4,11.2-9.2c0.1-0.4,0.6-0.6,1-0.5c0.4,0.1,0.6,0.6,0.5,1
	C171.7,66.1,169.3,69.5,162,69.5z"/>
<path class="st2" d="M111.9,134.5c-5.2,3-10.4,1.8-11,2.6c-2.3,3.3,5.2,6,7.4,5.6s5.8-1.1,6.6-4.4
	C115.6,135.2,112.9,134,111.9,134.5z"/>
<polygon class="st2" points="194,102.7 194,102.7 194,102.7 "/>
<path class="st2" d="M152.3,64.6c0-10-8.1-18.2-18.2-18.2S116,54.6,116,64.6c0,10,8.1,18.2,18.2,18.2S152.3,74.7,152.3,64.6z
	 M130,69.6c-5.5,1.3-9.7-4.4-9.5-7.5c0.2-3.1,3.1-9.6,8.9-10.2c3.6-0.4,5.4,1.3,5.5,3.8C135.1,60.7,135.6,68.3,130,69.6z"/>
<path class="st2" d="M173.4,58.3c-0.4-0.1-0.8,0.1-1,0.5c-2.2,6.8-4.4,9.4-11.2,9.2c0,0,0-0.1,0-0.1c-0.1-2.1-0.4-4.2-1-6.2
	c5.1-1.5,6.3-4.2,7.7-8.5c0.1-0.4-0.1-0.8-0.5-1c-0.4-0.1-0.8,0.1-1,0.5c-1.3,4-2.2,6.3-6.7,7.5c-0.4-1-0.8-2.1-1.2-3.1
	c-0.8-1.7-1.8-3.4-2.9-4.8c-1.1-1.5-2.4-2.9-3.7-4.1c-2.7-2.5-5.9-4.3-9.2-5.5c-3.3-1.2-6.6-1.7-9.8-1.6c-3.2,0-6.1,0.7-8.6,1.6
	c-2.6,0.9-4.7,2.2-6.5,3.4c-0.4,0.3-0.8,0.6-1.2,0.9c-0.4,0.3-0.8,0.7-1.1,1c-0.7,0.6-1.3,1.3-1.8,1.8c-1,1.1-1.7,2.2-2.1,2.8
	c-0.4,0.7-0.6,1.1-0.6,1.1s0.3-0.3,0.9-0.9c0.6-0.6,1.4-1.4,2.6-2.3c0.6-0.5,1.2-1,2-1.5c0.4-0.2,0.8-0.5,1.2-0.7
	c0.4-0.2,0.9-0.5,1.3-0.8c1.8-0.9,3.9-1.8,6.3-2.4c2.4-0.6,5.1-0.8,7.8-0.7c2.8,0.2,5.6,0.9,8.4,2c2.7,1.2,5.4,2.9,7.6,5
	c1.1,1.1,2.1,2.3,3,3.5c1,1.4,1.7,2.6,2.4,4.1c1.3,2.8,2.1,5.9,2.3,9c0.2,3.1-0.2,6.2-1.1,9c-0.9,2.8-2.3,5.4-4,7.4
	c-0.4,0.5-0.9,1-1.4,1.4c-0.1,0.1-0.3,0.3-0.3,0.3l-0.4,0.3c-0.3,0.2-0.5,0.4-0.8,0.7c-1,0.7-2.1,1.4-3.1,2
	c-2.2,1.1-4.4,1.8-6.3,2.2c-2,0.4-3.8,0.5-5.3,0.5c-1.5,0-2.7-0.1-3.5-0.1c-0.8-0.1-1.2-0.1-1.2-0.1s0.4,0.1,1.2,0.4
	c0.8,0.2,1.9,0.6,3.5,0.8c1.5,0.2,3.4,0.4,5.6,0.3c2.2-0.1,4.7-0.5,7.2-1.5c1.3-0.5,2.6-1.1,3.9-1.9c0.3-0.2,0.6-0.4,0.9-0.6
	l0.4-0.3l0.5-0.4c0.6-0.5,1.2-1,1.8-1.6c2.3-2.3,4.2-5.2,5.4-8.5c1-2.8,1.6-5.8,1.7-8.9c0.3,0,0.5,0,0.8,0c7.2,0,9.6-3.4,11.9-10.3
	C174.1,58.8,173.8,58.4,173.4,58.3z"/>
<path class="st2" d="M48.4,104c0-4.8-2.2-9.7-3.8-14.4c-3.2-9.9-3.4-20.9,0.7-30.4c3.6-8.3,10.2-15,17.8-20
	c9.5-6.2,20.5-8.3,30.4-13.4c6.8-3.5,12.9-10,13.1-18.1c0-0.5,0-1.4,0-1.4c18.2,4,26.8,8.1,26.6,10.3c-0.1,0.9-1.6,1.5-4.4,1.8
	c1.2-0.1,2.5-0.1,3.7-0.1c-1.3,0-2.7,0-3.9,0.1c-26.5,1.9-47.7,24-47.7,51c0,7.7,1.9,15.1,5,21.6c0,0,0.1,0,0.1,0.1
	c-0.9,1-1.3,2.1-1.3,3.7c0,0.4,0.4,0.6,0.8,0.6c0.4,0,0.8-0.1,0.8-0.6c0-0.9,0.2-1.6,0.6-2.2c8.5,16.6,25.7,28,45.6,28
	c11.6,0,22.3-3.9,30.9-10.4l0.3,0.3l15.4,12.6c0.1-3.5,1.6-6.7,3.7-8.6c6-1.8,8.8,6.7,9.6,10.9c0.3,1.5,0.5,1.4,0.4,7.3
	c0,0.5,0,1,0.1,1.5c0,0,0,0.1,0,0.1c0.1,1.8,0.7,3.8,2.4,5.2c0.1,0.1,0.2,0.1,0.3,0.3l0.2,0.2c0.3,0.2,0.5,0.3,0.8,0.4
	c0.5,0.2,1,0.4,1.5,0.5c1,0.2,2,0.2,2.9,0.1c0.1,0,0.2,0,0.3-0.1l0.7,0.6c0.1,0.8,0.3,1.7,0.8,2.5c0.6,1.1,1.6,2,2.7,2.6
	c1.3,0.6,2.6,0.8,3.8,0.9l30,24.2l15.7-19.4l-23.2-18.8c0.1-0.3,0.2-0.5,0.2-0.5s-0.6,0.8-1.6,2c-0.5,0.6-1.2,1.4-2,2.2
	c-0.8,0.8-1.8,1.5-3,2.3c-2.3,1.5-5.3,2.9-8.6,3.8c-1.6,0.5-3.4,0.8-5.1,1c-1.7,0.2-3.5,0.1-4.7-0.6c-1.2-0.5-1.9-1.7-1.9-3.3
	c0-0.2,0-0.3,0-0.5c0.4-0.1,0.7-0.3,1.1-0.4c1.6-0.6,3-1.4,4.4-2.3c1.4-0.8,2.6-1.7,3.7-2.6c1.1-0.9,2.1-1.8,3-2.7
	c1.8-1.8,3-3.5,3.7-4.8c0.4-0.6,0.6-1.2,0.7-1.5c0.1-0.4,0.2-0.6,0.2-0.6s-0.5,0.7-1.4,1.7c-1,1-2.5,2.4-4.4,3.8
	c-1,0.7-2,1.4-3.2,2.2c-1.2,0.7-2.4,1.4-3.7,2.1c-1.3,0.7-2.7,1.3-4.1,1.8c-1.4,0.5-2.9,0.9-4.3,1.1c-1.4,0.2-2.7,0-3.5-0.7
	c-0.9-0.7-1.4-1.8-1.6-3.1c-0.1-1.3,0.1-2.6,0.5-3.8c0.4-1.2,1-2.3,1.6-3.3c1.2-2,2.7-3.4,3.7-4.4c0.2-0.2,0.4-0.4,0.6-0.5
	c0.5-0.3,0.9-0.6,1.3-0.9l0.2,0c0,0-0.1-0.1-0.1-0.1c0.2-0.2,0.4-0.3,0.6-0.5c1.3-1.1,2.2-2.1,2.8-2.9c0.6-0.8,0.9-1.2,0.9-1.2
	c0,0-0.5,0.3-1.3,0.8c-0.8,0.5-2,1.1-3.3,1.9c-0.7,0.3-1.5,0.7-2.2,1c-0.8,0.3-1.6,0.6-2.4,0.6c-0.2,0-0.4,0-0.6,0
	c-0.6,0-1-0.2-1.4-0.4c-0.6-0.4-1.1-0.9-1.5-1.7c-0.8-1.5-1.2-3.5-1.4-5.4c-0.2-1.8-0.2-3.6-0.1-5.4c0.1-1.8,0.2-3.4,0.4-5.3
	l-14.6-11.7c3-6.5,4.7-13.8,4.7-21.4c0-10.1-3-20.1-8.7-28.5c-6.1-9-14.8-15-24.1-20.5c-8.5-5-12.5-7-21.6-10.9
	c-8.9-3.8-24.4-8.7-33-8.1c-0.9,0.1-1.7,0.2-2.5,0.3c-0.7,0.1,8.7,1.6,8.5,7.2c-0.2,4.8-3,9.5-6.5,12.1c-4,3-8.9,4.6-13.7,6.2
	c-10.3,3.5-20.6,7.5-29.6,13.6S35.9,55.4,32.3,65.6c-3.6,10.3-2.6,22.4,4.1,31c1.7,2.2,3.9,4.4,4.1,7.2c0.2,3.4-2.4,6.2-3.6,9.3
	c-1.6,4.4-0.1,9.7,3.5,12.6c-1-3,0.3-6.4,2.1-9.1s4-5.1,5.1-8.1C48.2,107.1,48.4,105.5,48.4,104z M132.6,115.9
	c-25.7,0-46.5-20.9-46.5-46.5c0-25.7,20.9-46.5,46.5-46.5c25.7,0,46.5,20.9,46.5,46.5C179.2,95,158.3,115.9,132.6,115.9z"/>
<path class="st1" d="M134.9,55.7c-0.1-2.5-1.9-4.1-5.5-3.8c-4.9,0.5-8.8,5.6-8.9,10.3c0,4.5,5.1,8.4,9.4,7.3
	C135.6,68.3,135.1,60.7,134.9,55.7z"/>
</svg>
