<svg xmlns="http://www.w3.org/2000/svg" viewBox="0 0 144 144" enable-background="new 0 0 144 144"><style type="text/css">.st0{fill:#FFFFFF;}</style><path class="st0" d="M76.3 66.7v-.2l-.1.2h.1zm-76.3-66.7v144h144v-144h-144zm52.3 106.4h-15.4v-46.4h15.4v46.4zm-7.7-52.8h-.1c-5.2 0-8.5-3.6-8.5-8 0-4.6 3.5-8 8.7-8 5.3 0 8.5 3.5 8.6 8 .1 4.5-3.3 8-8.7 8zm63.4 52.8h-15.4v-24.8c0-6.2-2.2-10.5-7.8-10.5-4.3 0-6.8 2.9-7.9 5.7-.4 1-.5 2.4-.5 3.8v25.9h-15.5s.2-42.1 0-46.4h15.4v6.6c2.1-3.2 5.7-7.7 13.9-7.7 10.2 0 17.8 6.6 17.8 20.9v26.5z"/></svg>