<svg xmlns="http://www.w3.org/2000/svg" viewBox="0 0 144 144" enable-background="new 0 0 144 144"><style type="text/css">.st0{fill:#FFFFFF;}</style><path class="st0" d="M144 144h-144v-144h144v144zm-80.1-120.7c-.6 4.9-1.7 8.9-3.3 12-1.6 3.2-3.7 5.9-6.4 8.1-2.6 2.2-5.8 4-9.5 5.2v13.4h10.4v33.2c0 4.3.5 7.6 1.4 9.9.9 2.3 2.5 4.4 4.9 6.4 2.3 2 5.2 3.6 8.5 4.7s7.1 1.6 11.5 1.6c3.8 0 7.3-.4 10.6-1.1 3.3-.8 6.9-2.1 11-4v-14.9c-4.7 3.1-9.5 4.7-14.3 4.7-2.7 0-5.1-.6-7.2-1.9-1.6-.9-2.7-2.2-3.2-3.7-.6-1.6-.9-5.1-.9-10.5v-24.3h22.4v-14.9h-22.5v-23.9h-13.4z"/></svg>